# xmcd
#
# Track frame offsets: 
#        150
#        27720
#        50914
#        71792
#        86679
#        107105
#        130027
#        147457
#        175022
#        194827
#
# Disc length: 2853 seconds
#
# Revision: 3
# Processed by: cddbd v1.5.2PL0 Copyright (c) Steve Scherf et al.
# Submitted via: ExactAudioCopy v1.3
#
DISCID=9f0b230a
DTITLE=Various Artist - 1998 Ruf Records Sampler
DYEAR=1998
DGENRE=Blues
TTITLE0=Walter Trout - Got a broken heart
TTITLE1=John Mooney - Sacred ground
TTITLE2=Larry Garner - Do your personal thing
TTITLE3=A. J. Croce - Trouble in mind
TTITLE4=Luther Allison - Castle
TTITLE5=Canned Heat - Stranger
TTITLE6=Taj Mahal - Stagger Lee
TTITLE7=James Solberg - L. A. Blues
TTITLE8=Bernard Allison - Slipping and sliding
TTITLE9=Friend 'n Fellow - I gave it all
EXTD=
EXTT0=Walter Trout\n
EXTT1=John Mooney\n
EXTT2=Larry Garner\n
EXTT3=A. J. Croce\n
EXTT4=Luther Allison\n
EXTT5=Canned Heat\n
EXTT6=Taj Mahal\n
EXTT7=James Solberg\n
EXTT8=Bernard Allison\n
EXTT9=Friend 'n Fellow\n
PLAYORDER=
